# xmcd
#
# Track frame offsets:
#	150
#	26274
#	55413
#	74020
#	95902
#	115304
#	137668
#	164814
#	184891
#	211993
#	237120
#	255532
#	274033
#
# Disc length: 3995 seconds
#
# Revision: 3
# Processed by: cddbd v1.4PL0 Copyright (c) Steve Scherf et al.
# Submitted via: audiograbber 1.81.03
#
DISCID=c60f990d
DTITLE=Dire Straits - Star Profile
DYEAR=2003
DGENRE=
TTITLE0=Sultans of Swing
TTITLE1=Calling Elvis
TTITLE2=Money for Nothing
TTITLE3=Brother in Arms
TTITLE4=The Bug
TTITLE5=Heavy Fuel
TTITLE6=Romeo and Juliet
TTITLE7=Ticket to Heaven
TTITLE8=You and Your Friend
TTITLE9=My Parties
TTITLE10=So Far Away
TTITLE11=Walk of Life
TTITLE12=You latest trick (live)
EXTD=
EXTT0=
EXTT1=
EXTT2=
EXTT3=
EXTT4=
EXTT5=
EXTT6=
EXTT7=
EXTT8=
EXTT9=
EXTT10=
EXTT11=
EXTT12=
PLAYORDER=
